<?xml version="1.0" ?><svg viewBox="0 0 415.96 326.39" xmlns="http://www.w3.org/2000/svg"><defs><style>.cls-1,.cls-2{fill:#020203;}.cls-1{opacity:0.2;}.cls-2{opacity:0.15;}.cls-3{fill:#e2000f;}.cls-4,.cls-5,.cls-6{fill:none;stroke:#fbbd00;stroke-miterlimit:10;}.cls-4{stroke-width:13.17px;}.cls-5{stroke-width:17.57px;}.cls-6{stroke-width:12.13px;}.cls-7{fill:#0094da;}.cls-8{fill:#fff;}.cls-9{fill:#139334;}</style></defs><title/><g data-name="Capa 2" id="Capa_2"><g data-name="Capa 1" id="Capa_1-2"><polygon class="cls-1" points="403.18 258.14 369.53 247.39 381.14 240.57 415.96 258.14 403.18 258.14"/><polygon class="cls-2" points="213.09 285.86 292.31 326.34 309.74 326.34 227.4 277.63 213.09 285.86"/><path class="cls-2" d="M11.53,188.91l201.56,97,111.69-67.5s-148-72.91-188.5-91.51S-40,165.26,11.53,188.91Z"/><path class="cls-3" d="M100.82,174.35s-.21,13,.15-47.91,117.35-98,117.35-52.81c0,54.75.79,98.73.79,98.73"/><line class="cls-4" x1="409.35" x2="409.35" y1="215.83" y2="258.33"/><line class="cls-5" x1="300.99" x2="300.99" y1="272.87" y2="326.39"/><path class="cls-6" d="M101,227.94s-.36-42,0-102.91S217.75,22.66,218.32,72.22c0,54.74.79,98.73.79,98.73"/><path class="cls-3" d="M306.38,98.66l-24.6,2.18,11-17.53-10.93,1-.5-5.7,24.17-2.13L294,93.7l11.82-1Z"/><path class="cls-3" d="M341.1,88.64l-28.64-7.28,19.83-17.29-12.72-3.24,1.84-7.27,28.14,7.15L329.29,77.48,343.05,81Z"/><path class="cls-3" d="M336.66,40.72,295.56,45,313.2,12.75,295,14.65,293.86,4.22,334.22,0,315.76,31.79l19.74-2.06Z"/><polyline class="cls-7" points="98.45 197.21 300.99 287.63 300.99 258.12 98.64 161.17"/><polygon class="cls-7" points="98.64 161.17 300.99 258.12 415.96 190.61 221.94 99.11 98.64 161.17"/><polygon class="cls-8" points="163.59 227.58 164.69 193.55 285.81 125.85 266.05 119.26 144.19 185.13 145.29 219.53 163.59 227.58"/><polygon class="cls-9" points="282.15 124.39 163.57 193.96 163.59 227.58 295.33 296.01 415.96 220.12 414.99 170.86 282.15 124.39"/><path class="cls-7" d="M103.47,167.41a16.3,16.3,0,0,0,2.25,1.27c28.7,11.37,63.14-.72,91.14-11.47,13-5,27.8-11.78,39-19.74,7.93-5.63,15.84-7.5,27.74-14.64,23.09-17.81-19.77-35.6-34.72-35-25.2,1-40.41,11.28-71.75,26.9C135.19,125.62,108.36,137.55,100,161"/><path class="cls-8" d="M112,156.65c1.79,5.07,11.88,10.82,16.72,13.27a42.77,42.77,0,0,0,20.82,4.4c1.29-6.16-8.72-14.11-13.5-17-8.28-5-16.72-5.88-25.41-4.49"/></g></g></svg>